<svg xmlns="http://www.w3.org/2000/svg" viewBox="0 0 512 512">
   <style type="text/css">  
      .st0{fill:#7286C2;}
      .st1{fill:#5970AB;}
      .st2{fill:#CBD5ED;}
      .st3{fill:#FFFFFF;}
      .st4{fill:none;stroke:#5970AB;stroke-width:2;stroke-miterlimit:10;}
   </style>
   <rect class="st0" width="512" height="512"/>
   <path class="st1" d="M458.9 211.2c-1.4-1.6-2.9-3.1-4.5-4.5 -1.2-1.3-2.5-2.6-3.8-3.8 -1.3-1.5-2.7-2.9-4.2-4.2 -1.2-1.4-2.5-2.7-3.9-3.9 -1.3-1.4-2.7-2.8-4.1-4.1 -9.9-10.9-24-18.1-39.7-18.8 -4.4-5.9-9.3-11.5-14.5-16.7 -2.2-2.3-4.4-4.6-6.7-6.7 -0.5-0.5-0.9-0.9-1.4-1.4 -2.2-2.3-4.4-4.6-6.7-6.7 -0.5-0.5-0.9-0.9-1.4-1.4 -2.2-2.3-4.4-4.6-6.7-6.7 -15.3-15.5-33.8-27.5-54.5-35 -2-3-4.4-5.8-7.1-8.2 -1.5-1.7-3.1-3.3-4.8-4.8 -1-1.2-2.1-2.3-3.3-3.3 -1.5-1.7-3.1-3.3-4.8-4.8 -1-1.2-2.1-2.3-3.3-3.3 -1.4-1.6-2.8-3.1-4.4-4.5 -7.8-8.9-19.2-14.5-31.9-14.5h-8V67c-2.9-0.9-6-1.4-9.2-1.4h-8v26.5c-43.7 10.1-80.3 39.5-99.8 80.1 -2.1-0.2-4.3-0.4-6.6-0.4 -31.5 0-57.2 25.7-57.2 57.2 0 16.8 7.3 32 18.9 42.4 1.1 1.3 2.3 2.5 3.6 3.6 1.6 1.8 3.2 3.5 5 5 1 1.1 2 2.1 3.1 3.1 1.6 1.8 3.2 3.4 5 5 1 1.1 2 2.1 3.1 3.1 7.7 8.7 17.9 15 29.5 17.8 3.8 6.8 8.2 13.3 13.1 19.5 -0.4 3.9-0.6 8-0.6 12.2 0 33.2 14 63.3 36.3 84.6 1 1 2 2 3 3 2 2.1 4 4.2 6.1 6.1 0.7 0.7 1.3 1.3 2 2 2.3 2.5 4.7 4.8 7.1 7.1 21.4 23.6 52.3 38.4 86.6 38.4 64.4 0 116.8-52.4 116.8-116.8 0-4.3-0.2-8.4-0.6-12.2 10-12.6 17.9-26.8 23.5-42.3 0.2 0 0.4 0 0.6 0 31.5 0 57.2-25.7 57.2-57.2C477.5 236.7 470.3 221.6 458.9 211.2z"/>
   <circle class="st2" cx="255.8" cy="340.8" r="108.9"/>
   <ellipse class="st2" cx="255.7" cy="236.4" rx="140.2" ry="140.2"/>
   <path class="st2" d="M247.1 61.9v68.7c19 0 34.3-15.4 34.3-34.3C281.5 77.2 266.1 61.9 247.1 61.9z"/>
   <path class="st2" d="M230 73.6v45.2c12.5 0 22.6-10.1 22.6-22.6C252.5 83.7 242.4 73.6 230 73.6z"/>
   <path class="st3" d="M301.4 403.9c2.6-1.9 4.3-5 4.3-8.5 0-5.9-4.8-10.7-10.7-10.7h-84.8c-5.9 0-10.7 4.8-10.7 10.7 0 3.5 1.7 6.6 4.2 8.5l0 0c13.8 9.8 30.7 15.5 48.9 15.5C270.7 419.4 287.6 413.7 301.4 403.9L301.4 403.9z"/>
   <path class="st3" d="M319.3 276.5c11.1 0 20-13.2 20-29.5s-9-29.5-20-29.5c-2.2 0-4.2 0.5-6.2 1.4 -17 5.8-36.6 9.1-57.4 9.3 -20.8-0.1-40.4-3.4-57.4-9.3 -1.9-0.9-4-1.4-6.2-1.4 -11.1 0-20 13.2-20 29.5s9 29.5 20 29.5h8.7c-13.8 14-22.4 33.2-22.4 54.4 0 12.8 3.1 24.8 8.6 35.4 0.9 1.9 2.9 3.1 5.1 3.1h127.3c2.2 0 4.1-1.3 5-3.1 5.5-10.6 8.6-22.6 8.6-35.4 0-21.2-8.6-40.4-22.4-54.4H319.3z"/>
   <path class="st1" d="M251.1 276.7c-2-3.9-5.8-5.9-8.4-4.5 -2.6 1.4-3.1 5.6-1 9.5 2 3.9 5.8 5.9 8.4 4.5C252.7 284.8 253.2 280.6 251.1 276.7z"/>
   <path class="st1" d="M260.3 276.7c2-3.9 5.8-5.9 8.4-4.5s3.1 5.6 1 9.5 -5.8 5.9-8.4 4.5C258.7 284.8 258.2 280.6 260.3 276.7z"/>
   <path class="st4" d="M294.9 384.7h-84.8c-5.9 0-10.7 4.8-10.7 10.7 0 3.5 1.7 6.6 4.2 8.5l0 0c13.8 9.8 30.7 15.5 48.9 15.5s35-5.7 48.8-15.5l0 0c2.6-1.9 4.3-5 4.3-8.5C305.6 389.5 300.8 384.7 294.9 384.7z"/>
   <path class="st4" d="M319.3 276.5c11.1 0 20-13.2 20-29.5s-9-29.5-20-29.5c-2.2 0-4.2 0.5-6.2 1.4 -17 5.8-36.6 9.1-57.4 9.3 -20.8-0.1-40.4-3.4-57.4-9.3 -1.9-0.9-4-1.4-6.2-1.4 -11.1 0-20 13.2-20 29.5s9 29.5 20 29.5h8.6c-13.8 14-22.4 33.2-22.4 54.4 0 12.8 3.1 24.8 8.6 35.4l0 0c0.9 1.9 2.9 3.1 5.1 3.1h127.3c2.2 0 4.1-1.3 5.1-3.1l0 0c5.5-10.6 8.6-22.6 8.6-35.4 0-21.2-8.5-40.4-22.4-54.4H319.3z"/>
   <circle class="st2" cx="396" cy="229" r="49.2"/>
   <circle class="st2" cx="115.5" cy="229" r="49.2"/>
   <circle class="st1" cx="300.5" cy="250.8" r="9.6"/>
   <circle class="st1" cx="210.9" cy="250.8" r="9.6"/>
</svg>