<?xml version="1.0" encoding="utf-8"?>
<!-- Generator: Adobe Illustrator 22.1.0, SVG Export Plug-In . SVG Version: 6.00 Build 0)  -->
<svg version="1.1" id="Layer_1" xmlns="http://www.w3.org/2000/svg" xmlns:xlink="http://www.w3.org/1999/xlink" x="0px" y="0px"
	 viewBox="0 0 512 512" style="enable-background:new 0 0 512 512;" xml:space="preserve">
<style type="text/css">
	.st0{fill:#7286C2;}
	.st1{fill:#FFFFFF;}
	.st2{fill:#FFFFFF;stroke:#FFFFFF;stroke-linejoin:round;stroke-miterlimit:10;}
</style>
<rect class="st0" width="512" height="512"/>
<g>
	<path class="st1" d="M285.8,353.1c1.7-1.3,2.8-3.3,2.8-5.6c0-3.9-3.1-7-7-7h-55.7c-3.9,0-7,3.1-7,7c0,2.3,1.1,4.3,2.8,5.6l0,0
		c9.1,6.4,20.1,10.2,32.1,10.2C265.7,363.3,276.7,359.5,285.8,353.1L285.8,353.1z"/>
	<g>
		<path class="st2" d="M54.5,246.1c19.7,0,22.4-10.8,22.4-20.5c0-7.8-1.1-15.5-2.2-23.3c-1.1-7.8-2.2-15.2-2.2-23
			c0-25.5,16.6-36.3,40.1-36.3h5.8v15.2h-5c-16.3,0-21.9,8.9-21.9,23.8c0,6.4,0.8,13,1.9,19.7c1.1,6.9,1.9,13.6,1.9,21
			c0.3,17.7-7.5,26.6-19.9,29.9v0.6c12.5,3,20.2,12.5,19.9,30.2c0,7.5-0.8,14.4-1.9,21c-1.1,6.9-1.9,13.3-1.9,19.9
			c0,15.5,6.4,24.1,21.9,24.1h5v15.2h-5.8c-23,0-40.1-10-40.1-37.9c0-7.5,1.1-15.2,2.2-22.7c1.1-7.5,2.2-14.9,2.2-22.4
			c0-8.6-2.8-20.5-22.4-20.5V246.1z"/>
	</g>
	<g>
		<path class="st2" d="M457.5,260.2c-19.7,0-22.4,11.9-22.4,20.5c0,7.5,1.1,14.9,2.2,22.4c1.1,7.5,2.2,15.2,2.2,22.7
			c0,28-17.2,37.9-40.1,37.9h-5.8v-15.2h5c15.5,0,21.9-8.6,21.9-24.1c0-6.6-0.8-13-1.9-19.9c-1.1-6.6-1.9-13.6-1.9-21
			c-0.3-17.7,7.5-27.1,19.9-30.2v-0.6c-12.5-3.3-20.2-12.2-19.9-29.9c0-7.5,0.8-14.1,1.9-21c1.1-6.6,1.9-13.3,1.9-19.7
			c0-14.9-5.5-23.8-21.9-23.8h-5v-15.2h5.8c23.5,0,40.1,10.8,40.1,36.3c0,7.8-1.1,15.2-2.2,23c-1.1,7.8-2.2,15.5-2.2,23.3
			c0,9.7,2.8,20.5,22.4,20.5V260.2z"/>
	</g>
	<path class="st1" d="M300.9,328.4L300.9,328.4c3.6-7,5.7-14.9,5.7-23.3c0-28-22.7-50.8-50.8-50.8c-28.1,0-50.8,22.7-50.8,50.8
		c0,8.4,2,16.3,5.6,23.3l0,0c0.6,1.2,1.9,2.1,3.3,2.1h83.6C299.1,330.5,300.3,329.7,300.9,328.4z"/>
	<path class="st1" d="M297.6,230.7c-1.4,0-2.8,0.3-4,0.9l0,0c-11.2,3.8-24,6-37.7,6.1c-13.7-0.1-26.5-2.2-37.7-6.1l0,0
		c-1.3-0.6-2.6-0.9-4-0.9c-7.3,0-13.2,8.7-13.2,19.4c0,10.7,5.9,19.4,13.2,19.4h41.7h41.7c7.3,0,13.1-8.7,13.1-19.4
		C310.7,239.4,304.8,230.7,297.6,230.7z"/>
	<path class="st0" d="M232.7,252.6c0,3.5-2.8,6.3-6.3,6.3c-3.5,0-6.3-2.8-6.3-6.3c0-3.5,2.8-6.3,6.3-6.3
		C229.9,246.3,232.7,249.1,232.7,252.6z"/>
	<path class="st0" d="M291.5,252.6c0,3.5-2.8,6.3-6.3,6.3c-3.5,0-6.3-2.8-6.3-6.3c0-3.5,2.8-6.3,6.3-6.3
		C288.7,246.3,291.5,249.1,291.5,252.6z"/>
	<path class="st0" d="M252.8,269.6c-1.3-2.5-3.8-3.9-5.5-3c-1.7,0.9-2,3.7-0.7,6.2c1.3,2.5,3.8,3.9,5.5,3
		C253.9,274.9,254.1,272.1,252.8,269.6z"/>
	<path class="st0" d="M258.8,269.6c1.3-2.5,3.8-3.9,5.5-3c1.7,0.9,2,3.7,0.7,6.2c-1.3,2.5-3.8,3.9-5.5,3
		C257.8,274.9,257.5,272.1,258.8,269.6z"/>
	<path class="st1" d="M347.9,196.9c-0.4,0-0.9,0-1.3,0c-13.2-25.7-37-45.1-65.6-52.4c-3-14.3-15.7-25.1-30.9-25.1
		c-4.6,0-8.4,3.4-8.9,7.8c-0.8-0.1-1.6-0.1-2.4-0.1c-5,0-9,4-9,9v8.7c-28.2,7.5-51.6,26.7-64.6,52.1c-0.5,0-1.1,0-1.6,0
		c-22.8,0-41.3,18.5-41.3,41.3c0,22,17.3,40.1,39.1,41.3c3.5,9,8.2,17.5,14.2,25.2c-0.2,2.3-0.3,4.6-0.3,6.9
		c0,44.4,36.1,80.5,80.5,80.5c44.4,0,80.5-36.1,80.5-80.5c0-2.3-0.1-4.6-0.3-6.9c5.9-7.7,10.7-16.2,14.2-25.2
		c21.7-1.2,39.1-19.2,39.1-41.3C389.3,215.5,370.7,196.9,347.9,196.9z M347.9,261.6c-0.9,0-1.9-0.1-3-0.2c-4.3-0.6-8.4,2.1-9.7,6.3
		c-3.2,10.5-8.5,20.1-15.5,28.6c-1.6,1.9-2.3,4.5-2,7c0.4,2.9,0.6,5.7,0.6,8.4c0,34.5-28,62.5-62.5,62.5c-34.5,0-62.5-28-62.5-62.5
		c0-2.7,0.2-5.5,0.6-8.4c0.3-2.5-0.4-5-2-7c-7.1-8.5-12.3-18.1-15.5-28.6c-1.2-3.8-4.7-6.3-8.6-6.3c-0.4,0-0.8,0-1.1,0.1
		c-1,0.1-2,0.2-2.9,0.2c-12.9,0-23.3-10.5-23.3-23.3c0-12.9,10.5-23.3,23.3-23.3c1.8,0,3.6,0.2,5.4,0.6c3.8,0.9,7.6-0.7,9.6-3.9
		c12.4-30.3,42.3-51.7,77.1-51.7c34.8,0,64.7,21.4,77.1,51.7c2,3.2,5.9,4.8,9.6,3.9c1.8-0.4,3.6-0.6,5.4-0.6
		c12.9,0,23.3,10.5,23.3,23.3C371.3,251.1,360.8,261.6,347.9,261.6z"/>
</g>
</svg>
