<?xml version="1.0" encoding="utf-8"?>
<!-- Generator: Adobe Illustrator 22.1.0, SVG Export Plug-In . SVG Version: 6.00 Build 0)  -->
<svg version="1.1" id="Layer_1" xmlns="http://www.w3.org/2000/svg" xmlns:xlink="http://www.w3.org/1999/xlink" x="0px" y="0px"
	 viewBox="0 0 512 512" style="enable-background:new 0 0 512 512;" xml:space="preserve">
<style type="text/css">
	.st0{fill:#7286C2;}
	.st1{fill:#CBD5ED;}
	.st2{fill:#FFFFFF;}
	.st3{fill:#5970AB;}
</style>
<rect class="st0" width="512" height="512"/>
<g>
	
		<ellipse transform="matrix(0.1579 -0.9875 0.9875 0.1579 -18.1266 451.6155)" class="st1" cx="255.7" cy="236.4" rx="140.2" ry="140.2"/>
	<path class="st1" d="M364.6,340.7c0,60.1-48.7,108.8-108.8,108.8c-60.1,0-108.9-48.7-108.9-108.8c0-60.1,48.7-108.8,108.9-108.8
		C315.8,231.9,364.6,280.6,364.6,340.7z"/>
	<path class="st1" d="M445.2,229c0,27.2-22,49.2-49.2,49.2c-27.2,0-49.2-22-49.2-49.2c0-27.2,22-49.2,49.2-49.2
		C423.1,179.8,445.2,201.8,445.2,229z"/>
	<path class="st1" d="M164.7,229c0,27.2-22,49.2-49.2,49.2c-27.2,0-49.2-22-49.2-49.2c0-27.2,22-49.2,49.2-49.2
		C142.7,179.8,164.7,201.8,164.7,229z"/>
	<path class="st1" d="M247.1,61.9v68.7c19,0,34.3-15.4,34.3-34.3C281.5,77.2,266.1,61.9,247.1,61.9z"/>
	<path class="st1" d="M230,73.6v45.2c12.5,0,22.6-10.1,22.6-22.6S242.4,73.6,230,73.6z"/>
</g>
<path class="st2" d="M324.4,366.3L324.4,366.3c5.5-10.6,8.6-22.6,8.6-35.4c0-42.7-34.6-77.3-77.3-77.3c-42.7,0-77.3,34.6-77.3,77.3
	c0,12.8,3.1,24.8,8.6,35.4l0,0c0.9,1.9,2.9,3.1,5.1,3.1h127.3C321.6,369.4,323.5,368.1,324.4,366.3z"/>
<path class="st2" d="M301.4,403.9c2.6-1.9,4.3-5,4.3-8.5c0-5.9-4.8-10.7-10.7-10.7h-84.8c-5.9,0-10.7,4.8-10.7,10.7
	c0,3.5,1.7,6.6,4.2,8.5l0,0c13.8,9.8,30.7,15.5,48.9,15.5C270.7,419.4,287.6,413.7,301.4,403.9L301.4,403.9z"/>
<path class="st2" d="M319.3,217.5c-2.2,0-4.2,0.5-6.2,1.4l0,0c-17,5.8-36.6,9.1-57.4,9.3c-20.8-0.1-40.4-3.4-57.4-9.3l0,0
	c-1.9-0.9-4-1.4-6.2-1.4c-11.1,0-20,13.2-20,29.5c0,16.3,9,29.5,20,29.5h63.6h63.6c11.1,0,20-13.2,20-29.5
	C339.3,230.7,330.3,217.5,319.3,217.5z"/>
<path class="st3" d="M220.5,250.8c0,5.3-4.3,9.6-9.6,9.6c-5.3,0-9.6-4.3-9.6-9.6c0-5.3,4.3-9.6,9.6-9.6
	C216.2,241.2,220.5,245.5,220.5,250.8z"/>
<path class="st3" d="M310.1,250.8c0,5.3-4.3,9.6-9.6,9.6c-5.3,0-9.6-4.3-9.6-9.6c0-5.3,4.3-9.6,9.6-9.6
	C305.8,241.2,310.1,245.5,310.1,250.8z"/>
<path class="st3" d="M251.1,276.7c-2-3.9-5.8-5.9-8.4-4.5c-2.6,1.4-3.1,5.6-1,9.5c2,3.9,5.8,5.9,8.4,4.5
	C252.7,284.8,253.2,280.6,251.1,276.7z"/>
<path class="st3" d="M260.3,276.7c2-3.9,5.8-5.9,8.4-4.5c2.6,1.4,3.1,5.6,1,9.5c-2.1,3.9-5.8,5.9-8.4,4.5
	C258.7,284.8,258.2,280.6,260.3,276.7z"/>
</svg>
