<svg xmlns="http://www.w3.org/2000/svg" viewBox="0 0 512 512">
   <style type="text/css">  
      .st0{fill:#7286C2;}
      .st1{fill:#5970AB;}
      .st2{fill:#FFFFFF;}
      .st3{fill:#FFFFFF;stroke:#FFFFFF;stroke-linejoin:round;stroke-miterlimit:10;}
   </style>
   <rect class="st0" width="512" height="512"/>
   <path class="st1" d="M481.3 257.8c-0.1-0.1-0.2-0.2-0.3-0.3 -0.1-0.1-0.2-0.2-0.3-0.3 -0.1-0.1-0.2-0.2-0.4-0.4 -0.1-0.1-0.2-0.2-0.4-0.4 -0.1-0.1-0.2-0.2-0.3-0.3 -0.1-0.1-0.3-0.3-0.4-0.4 -0.1-0.1-0.2-0.2-0.3-0.3 -0.1-0.1-0.2-0.2-0.4-0.4 -0.1-0.1-0.2-0.2-0.4-0.4 -0.1-0.1-0.2-0.2-0.3-0.3 -0.1-0.1-0.3-0.3-0.4-0.4 -0.1-0.1-0.2-0.2-0.3-0.3 -0.1-0.1-0.3-0.3-0.4-0.4 -0.1-0.1-0.2-0.2-0.4-0.4 -0.1-0.1-0.2-0.2-0.3-0.3 -0.1-0.1-0.3-0.3-0.4-0.4 -0.1-0.1-0.2-0.2-0.3-0.3 -0.1-0.1-0.3-0.3-0.4-0.4 -0.1-0.1-0.2-0.2-0.3-0.3 -0.1-0.1-0.2-0.2-0.4-0.4 -0.1-0.1-0.2-0.2-0.4-0.4 -0.1-0.1-0.2-0.2-0.3-0.3 -0.1-0.1-0.3-0.3-0.4-0.4 -0.1-0.1-0.2-0.2-0.3-0.3 -0.1-0.1-0.2-0.2-0.4-0.4 -0.1-0.1-0.2-0.2-0.4-0.4 -0.1-0.1-0.2-0.2-0.3-0.3 -0.1-0.1-0.3-0.3-0.4-0.4 -0.1-0.1-0.2-0.2-0.3-0.3 -0.1-0.1-0.3-0.3-0.4-0.4 -0.1-0.1-0.2-0.2-0.4-0.4 -0.1-0.1-0.2-0.2-0.3-0.3 -0.1-0.1-0.3-0.3-0.4-0.4 -0.1-0.1-0.2-0.2-0.3-0.3 -0.1-0.1-0.3-0.3-0.4-0.4 -0.1-0.1-0.2-0.2-0.3-0.3 -0.1-0.1-0.2-0.2-0.4-0.4 -0.1-0.1-0.2-0.2-0.4-0.4 -0.1-0.1-0.2-0.2-0.3-0.3 -0.1-0.1-0.3-0.3-0.4-0.4 -0.1-0.1-0.2-0.2-0.3-0.3 -0.1-0.1-0.2-0.2-0.4-0.4 -0.1-0.1-0.2-0.2-0.4-0.4 -0.1-0.1-0.2-0.2-0.3-0.3 -0.1-0.1-0.3-0.3-0.4-0.4 -0.1-0.1-0.2-0.2-0.3-0.3 -0.1-0.1-0.3-0.3-0.4-0.4 -0.1-0.1-0.2-0.2-0.4-0.4 -0.1-0.1-0.2-0.2-0.3-0.3 -0.1-0.1-0.2-0.2-0.3-0.3 -0.6-0.6-1.3-1.2-2-1.6 0.3-5.7 1.2-11.5 2-17.2l0.1-0.8c1.1-7.9 2.2-15.3 2.2-23.4 0-13.4-4-24.1-11.8-31.9 -0.1-0.1-0.2-0.2-0.3-0.3l-0.1-0.1c-0.1-0.1-0.2-0.2-0.3-0.3l-0.1-0.1c-0.1-0.1-0.2-0.2-0.3-0.3l-0.4-0.4c-0.1-0.1-0.2-0.2-0.3-0.3l-0.1-0.1c-0.1-0.1-0.2-0.2-0.3-0.3l-0.1-0.1c-0.1-0.1-0.2-0.2-0.3-0.3l0 0c-0.1-0.1-0.2-0.2-0.3-0.3l-1.1-1.1c-0.1-0.1-0.2-0.2-0.3-0.3l0 0c-0.1-0.1-0.2-0.2-0.3-0.3l-0.4-0.4c-0.1-0.1-0.2-0.2-0.3-0.3l-0.8-0.8c-0.1-0.1-0.2-0.2-0.3-0.3l-0.1-0.1c-0.1-0.1-0.2-0.2-0.3-0.3l-0.1-0.1c-0.1-0.1-0.2-0.2-0.3-0.3l-0.4-0.4c-0.1-0.1-0.2-0.2-0.3-0.3l-0.1-0.1c-0.1-0.1-0.2-0.2-0.3-0.3l-0.1-0.1c-0.1-0.1-0.2-0.2-0.3-0.3l0 0c-0.1-0.1-0.2-0.2-0.3-0.3l-1.1-1.1c-0.1-0.1-0.2-0.2-0.3-0.3l0 0c-0.1-0.1-0.2-0.2-0.3-0.3l-0.4-0.4c-0.1-0.1-0.2-0.2-0.3-0.3l-0.8-0.8c-0.1-0.1-0.2-0.2-0.3-0.3l-0.1-0.1c-0.1-0.1-0.2-0.2-0.3-0.3l-0.1-0.1c-0.1-0.1-0.2-0.2-0.3-0.3l-0.4-0.4c-0.1-0.1-0.2-0.2-0.3-0.3l-0.1-0.1c-0.1-0.1-0.2-0.2-0.3-0.3l-0.1-0.1c-0.1-0.1-0.2-0.2-0.3-0.3l0 0c-0.1-0.1-0.2-0.2-0.3-0.3l-1.1-1.1c-0.1-0.1-0.2-0.2-0.3-0.3l0 0c-0.1-0.1-0.2-0.2-0.3-0.3l-0.4-0.4c-0.1-0.1-0.2-0.2-0.3-0.3l-0.4-0.4c-8.5-8.8-21-13.2-37.2-13.2h-5.8c-4.7 0-8.5 3.8-8.5 8.5v15.2c0 2.4 1 4.7 2.7 6.2 0.1 0.1 0.2 0.2 0.3 0.3 0.1 0.1 0.2 0.2 0.4 0.4 0.1 0.1 0.2 0.2 0.3 0.3 0.1 0.1 0.3 0.3 0.4 0.4 0.1 0.1 0.2 0.2 0.3 0.3 0.1 0.1 0.2 0.3 0.4 0.4 0.1 0.1 0.2 0.2 0.3 0.3 0.1 0.1 0.2 0.2 0.4 0.4 0.1 0.1 0.2 0.2 0.4 0.4 0.1 0.1 0.2 0.2 0.3 0.3 0.1 0.1 0.3 0.3 0.4 0.4 0.1 0.1 0.2 0.2 0.3 0.3 0.1 0.1 0.2 0.3 0.4 0.4 0.1 0.1 0.2 0.2 0.4 0.4 0.1 0.1 0.2 0.2 0.3 0.3 0.1 0.1 0.3 0.3 0.4 0.4 0.1 0.1 0.2 0.2 0.3 0.3 0.1 0.1 0.3 0.3 0.4 0.4 0.1 0.1 0.2 0.2 0.4 0.4 0.1 0.1 0.2 0.2 0.3 0.3 0.1 0.1 0.3 0.3 0.4 0.4 0.1 0.1 0.2 0.2 0.3 0.3 0.1 0.1 0.2 0.3 0.4 0.4 0.1 0.1 0.2 0.2 0.3 0.3 0.1 0.1 0.2 0.2 0.4 0.4 0.1 0.1 0.2 0.2 0.4 0.4 0.1 0.1 0.2 0.2 0.3 0.3 0.1 0.1 0.3 0.3 0.4 0.4 0.1 0.1 0.2 0.2 0.3 0.3 0.1 0.1 0.2 0.3 0.4 0.4 0.1 0.1 0.2 0.2 0.4 0.4 0.1 0.1 0.2 0.2 0.3 0.3 0.1 0.1 0.3 0.3 0.4 0.4 0.1 0.1 0.2 0.2 0.3 0.3 0.1 0.1 0.3 0.3 0.4 0.4 0.1 0.1 0.2 0.2 0.4 0.4 0.1 0.1 0.2 0.2 0.3 0.3 0.1 0.1 0.3 0.3 0.4 0.4 0.1 0.1 0.2 0.2 0.3 0.3 0.1 0.1 0.2 0.3 0.4 0.4 0.1 0.1 0.2 0.2 0.3 0.3 0.1 0.1 0.2 0.2 0.4 0.4 0.1 0.1 0.2 0.2 0.4 0.4 0.1 0.1 0.2 0.2 0.3 0.3 0.1 0.1 0.3 0.3 0.4 0.4 0.1 0.1 0.2 0.2 0.3 0.3 0.1 0.1 0.2 0.3 0.4 0.4 0.1 0.1 0.2 0.2 0.4 0.4 0.1 0.1 0.2 0.2 0.3 0.3 0.1 0.1 0.2 0.2 0.3 0.3 1.6 1.7 3.8 2.7 6.2 2.7h0.3c-0.2 4.4-0.7 9.3-1.8 15.6 -1.1 6.6-2 13.9-2 22.3 0 3 0.1 5.9 0.5 8.7 -2.2-3.7-4.8-7.1-7.9-10.1l-0.7-0.7c-0.1-0.1-0.3-0.3-0.4-0.4l-1.7-1.7c-0.1-0.1-0.3-0.3-0.4-0.4 -0.1-0.1-0.2-0.2-0.4-0.4 -0.1-0.1-0.2-0.2-0.4-0.4 -0.1-0.1-0.3-0.3-0.4-0.4l-2.4-2.4c-0.1-0.1-0.3-0.3-0.4-0.4l-1.7-1.7c-0.1-0.1-0.3-0.3-0.4-0.4 -0.1-0.1-0.2-0.2-0.4-0.4 -0.1-0.1-0.2-0.2-0.4-0.4 -0.1-0.1-0.3-0.3-0.4-0.4l-2.4-2.4c-0.1-0.1-0.3-0.3-0.4-0.4l-1.7-1.7c-0.1-0.1-0.3-0.3-0.4-0.4 -0.1-0.1-0.2-0.2-0.4-0.4 -0.1-0.1-0.2-0.2-0.4-0.4 -0.1-0.1-0.3-0.3-0.4-0.4l-1.3-1.3c-7.3-7.4-16.7-12.2-26.7-14 -1.9-2.2-3.9-4.3-5.9-6.3l-17.6-17.6c-6.4-6.4-13.7-12-21.5-16.6l-0.2-0.1c-0.7-0.4-1.3-0.8-2-1.1l-0.7-0.4c-0.5-0.3-1-0.6-1.6-0.8 -0.4-0.2-0.7-0.4-1.1-0.6l-0.3-0.2c-0.3-0.2-0.6-0.3-0.9-0.4 -0.6-0.3-1.2-0.6-1.9-0.9l-0.5-0.3c-1.5-0.7-3.1-1.4-4.9-2.1 -0.4-0.4-0.8-0.9-1.3-1.3l-0.6-0.6c-0.1-0.1-0.3-0.3-0.4-0.4 -0.1-0.1-0.2-0.2-0.4-0.4 -0.1-0.1-0.2-0.2-0.3-0.3 -0.1-0.1-0.3-0.3-0.3-0.3 -0.1-0.1-0.3-0.3-0.4-0.4 -0.1-0.1-0.3-0.3-0.3-0.3l-0.3-0.3c-0.1-0.1-0.3-0.3-0.4-0.4 -0.1-0.1-0.3-0.3-0.4-0.4l-1-1c-0.2-0.2-0.3-0.3-0.4-0.4l-1.3-1.3c-0.1-0.1-0.3-0.3-0.4-0.4 -0.1-0.1-0.2-0.2-0.4-0.4 -0.1-0.1-0.2-0.2-0.3-0.3 -0.1-0.1-0.3-0.3-0.3-0.3 -0.1-0.1-0.3-0.3-0.4-0.4 -0.1-0.1-0.3-0.3-0.3-0.3l-0.3-0.3c-0.1-0.1-0.3-0.3-0.4-0.4 -0.1-0.1-0.3-0.3-0.4-0.4l-1-1c-0.2-0.2-0.3-0.3-0.4-0.4l-1.3-1.3c-0.1-0.1-0.3-0.3-0.4-0.4 -0.1-0.1-0.2-0.2-0.4-0.4 -0.1-0.1-0.2-0.2-0.3-0.3 -0.1-0.1-0.3-0.3-0.3-0.3 -0.1-0.1-0.3-0.3-0.4-0.4 -0.1-0.1-0.3-0.3-0.3-0.3l-0.3-0.3c-0.1-0.1-0.3-0.3-0.4-0.4 -0.1-0.1-0.3-0.3-0.4-0.4l-1-1c-0.2-0.2-0.3-0.3-0.4-0.4l-0.3-0.3c-7.5-7.6-17.5-11.8-28.1-11.8 -6 0-11.4 3.2-14.4 8 -7.9 1.5-13.9 8.4-13.9 16.7v3.2c-4.4 1.4-8.6 3.1-12.7 5.1l-0.4 0.2c-0.7 0.3-1.3 0.6-2 1l-0.8 0.4c-0.5 0.3-1 0.5-1.5 0.8 -0.4 0.2-0.8 0.4-1.2 0.6 -0.3 0.2-0.7 0.4-1 0.6 -0.5 0.3-1.1 0.6-1.6 0.9l-0.5 0.3c-16.3 9.6-29.7 23.3-39.1 39.8 -18.2 1-33.8 11.8-41.5 27.3 -1-6.5-1.5-11.6-1.5-16.2 0-13 4.3-15.3 13.4-15.3h5c4.7 0 8.5-3.8 8.5-8.5v-15.2c0-2.4-1-4.7-2.7-6.2 -0.1-0.1-0.2-0.2-0.3-0.3 -0.1-0.1-0.2-0.2-0.3-0.3 -0.1-0.1-0.2-0.2-0.4-0.4 -0.1-0.1-0.3-0.3-0.4-0.4 -0.1-0.1-0.2-0.2-0.3-0.3 -0.1-0.1-0.3-0.3-0.4-0.4 -0.1-0.1-0.2-0.2-0.3-0.3 -0.1-0.1-0.2-0.3-0.4-0.4 -0.1-0.1-0.2-0.2-0.4-0.4 -0.1-0.1-0.2-0.2-0.3-0.3 -0.1-0.1-0.3-0.3-0.4-0.4 -0.1-0.1-0.2-0.2-0.3-0.3 -0.1-0.1-0.2-0.3-0.4-0.4 -0.1-0.1-0.2-0.2-0.4-0.4 -0.1-0.1-0.2-0.2-0.3-0.3 -0.1-0.1-0.3-0.3-0.4-0.4 -0.1-0.1-0.2-0.2-0.3-0.3 -0.1-0.1-0.3-0.3-0.4-0.4 -0.1-0.1-0.2-0.2-0.3-0.3 -0.1-0.1-0.2-0.2-0.4-0.4 -0.1-0.1-0.3-0.3-0.4-0.4 -0.1-0.1-0.2-0.2-0.3-0.3 -0.1-0.1-0.3-0.3-0.4-0.4 -0.1-0.1-0.2-0.2-0.3-0.3 -0.1-0.1-0.2-0.3-0.4-0.4 -0.1-0.1-0.2-0.2-0.4-0.4 -0.1-0.1-0.2-0.2-0.3-0.3 -0.1-0.1-0.3-0.3-0.4-0.4 -0.1-0.1-0.2-0.2-0.3-0.3 -0.1-0.1-0.2-0.3-0.4-0.4 -0.1-0.1-0.2-0.2-0.4-0.4 -0.1-0.1-0.2-0.2-0.3-0.3 -0.1-0.1-0.3-0.3-0.4-0.4 -0.1-0.1-0.2-0.2-0.3-0.3 -0.1-0.1-0.3-0.3-0.4-0.4 -0.1-0.1-0.2-0.2-0.3-0.3 -0.1-0.1-0.2-0.2-0.4-0.4 -0.1-0.1-0.3-0.3-0.4-0.4 -0.1-0.1-0.2-0.2-0.3-0.3 -0.1-0.1-0.3-0.3-0.4-0.4 -0.1-0.1-0.2-0.2-0.3-0.3 -0.1-0.1-0.2-0.3-0.4-0.4 -0.1-0.1-0.2-0.2-0.4-0.4 -0.1-0.1-0.2-0.2-0.3-0.3 -0.1-0.1-0.3-0.3-0.4-0.4 -0.1-0.1-0.2-0.2-0.3-0.3 -0.1-0.1-0.2-0.3-0.4-0.4 -0.1-0.1-0.2-0.2-0.4-0.4 -0.1-0.1-0.2-0.2-0.3-0.3 -0.1-0.1-0.2-0.2-0.3-0.3 -1.6-1.7-3.8-2.7-6.2-2.7h-5.8c-30.5 0-48.6 16.7-48.6 44.8 0 8.1 1.1 15.5 2.2 23.4l0.1 0.8c1 7.3 2.1 14.9 2.1 22 0 7.2-1 12-13.9 12 -4.7 0-8.5 3.8-8.5 8.5v14.1c0 2.4 1 4.7 2.7 6.2 0.1 0.1 0.2 0.2 0.3 0.3 0.1 0.1 0.2 0.2 0.4 0.4 0.1 0.1 0.2 0.2 0.3 0.3 0.1 0.1 0.3 0.3 0.4 0.4 0.1 0.1 0.2 0.2 0.3 0.3 0.1 0.1 0.2 0.3 0.4 0.4 0.1 0.1 0.2 0.2 0.3 0.3 0.1 0.1 0.2 0.2 0.4 0.4 0.1 0.1 0.2 0.2 0.4 0.4 0.1 0.1 0.2 0.2 0.3 0.3 0.1 0.1 0.3 0.3 0.4 0.4 0.1 0.1 0.2 0.2 0.3 0.3 0.1 0.1 0.3 0.3 0.4 0.4 0.1 0.1 0.2 0.2 0.4 0.4 0.1 0.1 0.2 0.2 0.3 0.3 0.1 0.1 0.3 0.3 0.4 0.4 0.1 0.1 0.2 0.2 0.3 0.3 0.1 0.1 0.2 0.3 0.4 0.4 0.1 0.1 0.2 0.2 0.4 0.4 0.1 0.1 0.2 0.2 0.3 0.3 0.1 0.1 0.3 0.3 0.4 0.4 0.1 0.1 0.2 0.2 0.3 0.3 0.1 0.1 0.2 0.3 0.4 0.4 0.1 0.1 0.2 0.2 0.3 0.3 0.1 0.1 0.2 0.2 0.4 0.4 0.1 0.1 0.2 0.2 0.4 0.4 0.1 0.1 0.2 0.2 0.3 0.3 0.1 0.1 0.3 0.3 0.4 0.4 0.1 0.1 0.2 0.2 0.3 0.3 0.1 0.1 0.3 0.3 0.4 0.4 0.1 0.1 0.2 0.2 0.4 0.4 0.1 0.1 0.2 0.2 0.3 0.3 0.1 0.1 0.3 0.3 0.4 0.4 0.1 0.1 0.2 0.2 0.3 0.3 0.1 0.1 0.2 0.3 0.4 0.4 0.1 0.1 0.2 0.2 0.4 0.4 0.1 0.1 0.2 0.2 0.3 0.3 0.1 0.1 0.3 0.3 0.4 0.4 0.1 0.1 0.2 0.2 0.3 0.3 0.1 0.1 0.2 0.3 0.4 0.4 0.1 0.1 0.2 0.2 0.3 0.3 0.1 0.1 0.2 0.2 0.4 0.4 0.1 0.1 0.2 0.2 0.4 0.4 0.1 0.1 0.2 0.2 0.3 0.3 0.1 0.1 0.3 0.3 0.4 0.4 0.1 0.1 0.2 0.2 0.3 0.3 0.1 0.1 0.3 0.3 0.4 0.4 0.1 0.1 0.2 0.2 0.4 0.4 0.1 0.1 0.2 0.2 0.3 0.3 0.1 0.1 0.2 0.2 0.3 0.3 0.6 0.6 1.2 1.2 2 1.6 -0.3 5.4-1.2 10.9-2 16.3 -1 6.9-2.3 15.6-2.3 23.9 0 14.8 4.3 26.3 12.8 34.4h0c0.1 0.1 0.2 0.2 0.3 0.3v0c0.1 0.1 0.2 0.2 0.4 0.4h0c0.1 0.1 0.2 0.2 0.4 0.4l0 0c0.1 0.1 0.2 0.2 0.4 0.4l0 0c0.1 0.1 0.3 0.3 0.4 0.4 0.1 0.1 0.3 0.3 0.3 0.3 0.1 0.1 0.2 0.2 0.3 0.3v0c0.1 0.1 0.2 0.2 0.4 0.4v0c0.1 0.1 0.2 0.2 0.4 0.4h0c0.1 0.1 0.2 0.2 0.4 0.4h0c0.1 0.1 0.2 0.2 0.4 0.4l0 0c0.1 0.1 0.2 0.2 0.4 0.4v0c0.1 0.1 0.2 0.2 0.3 0.3l0 0c0.1 0.1 0.2 0.2 0.4 0.4l0 0c0.1 0.1 0.2 0.2 0.3 0.3h0c0.1 0.1 0.2 0.2 0.4 0.4v0c0.1 0.1 0.2 0.2 0.3 0.3l0 0c0.1 0.1 0.2 0.2 0.3 0.3v0c0.1 0.1 0.2 0.2 0.4 0.4h0c0.1 0.1 0.2 0.2 0.4 0.4l0 0c0.1 0.1 0.2 0.2 0.4 0.4l0 0c0.1 0.1 0.3 0.3 0.4 0.4 0.1 0.1 0.3 0.3 0.3 0.3 0.1 0.1 0.2 0.2 0.3 0.3v0c0.1 0.1 0.2 0.2 0.4 0.4v0c0.1 0.1 0.2 0.2 0.4 0.4h0c0.1 0.1 0.2 0.2 0.4 0.4h0c0.1 0.1 0.2 0.2 0.4 0.4l0 0c0.1 0.1 0.2 0.2 0.4 0.4v0c0.1 0.1 0.2 0.2 0.3 0.3l0 0c0.1 0.1 0.2 0.2 0.4 0.4l0 0c0.1 0.1 0.2 0.2 0.3 0.3h0c0.1 0.1 0.2 0.2 0.4 0.4v0c0.1 0.1 0.2 0.2 0.3 0.3l0 0c0.1 0.1 0.2 0.2 0.3 0.3v0c0.1 0.1 0.2 0.2 0.4 0.4h0c0.1 0.1 0.2 0.2 0.4 0.4l0 0c0.1 0.1 0.2 0.2 0.4 0.4l0 0c0.1 0.1 0.3 0.3 0.4 0.4 0.1 0.1 0.3 0.3 0.3 0.3 0.1 0.1 0.2 0.2 0.3 0.3v0c0.1 0.1 0.2 0.2 0.4 0.4v0c0.1 0.1 0.2 0.2 0.4 0.4h0c0.1 0.1 0.2 0.2 0.4 0.4h0c0.1 0.1 0.2 0.2 0.4 0.4l0 0c0.1 0.1 0.2 0.2 0.4 0.4v0c0.1 0.1 0.2 0.2 0.3 0.3l0 0c0.1 0.1 0.2 0.2 0.4 0.4l0 0c0.1 0.1 0.2 0.2 0.3 0.3h0c0.1 0.1 0.2 0.3 0.4 0.4 8.4 8.2 20.6 12.4 36.2 12.4h5.8c4.7 0 8.5-3.8 8.5-8.5v-15.2c0-2.4-1-4.7-2.7-6.2 -0.1-0.1-0.2-0.2-0.3-0.3 -0.1-0.1-0.2-0.2-0.3-0.3 -0.1-0.1-0.2-0.2-0.4-0.4 -0.1-0.1-0.2-0.2-0.4-0.4 -0.1-0.1-0.2-0.2-0.3-0.3 -0.1-0.1-0.3-0.3-0.4-0.4 -0.1-0.1-0.2-0.2-0.3-0.3 -0.1-0.1-0.2-0.3-0.4-0.4 -0.1-0.1-0.2-0.2-0.4-0.4 -0.1-0.1-0.2-0.2-0.3-0.3 -0.1-0.1-0.3-0.3-0.4-0.4 -0.1-0.1-0.2-0.2-0.3-0.3 -0.1-0.1-0.3-0.3-0.4-0.4 -0.1-0.1-0.2-0.2-0.4-0.4 -0.1-0.1-0.2-0.2-0.3-0.3 -0.1-0.1-0.3-0.3-0.4-0.4 -0.1-0.1-0.2-0.2-0.3-0.3 -0.1-0.1-0.3-0.3-0.4-0.4 -0.1-0.1-0.2-0.2-0.3-0.3 -0.1-0.1-0.2-0.2-0.4-0.4 -0.1-0.1-0.2-0.2-0.4-0.4 -0.1-0.1-0.2-0.2-0.3-0.3 -0.1-0.1-0.3-0.3-0.4-0.4 -0.1-0.1-0.2-0.2-0.3-0.3 -0.1-0.1-0.2-0.3-0.4-0.4 -0.1-0.1-0.2-0.2-0.4-0.4 -0.1-0.1-0.2-0.2-0.3-0.3 -0.1-0.1-0.3-0.3-0.4-0.4 -0.1-0.1-0.2-0.2-0.3-0.3 -0.1-0.1-0.3-0.3-0.4-0.4 -0.1-0.1-0.2-0.2-0.4-0.4 -0.1-0.1-0.2-0.2-0.3-0.3 -0.1-0.1-0.3-0.3-0.4-0.4 -0.1-0.1-0.2-0.2-0.3-0.3 -0.1-0.1-0.3-0.3-0.4-0.4 -0.1-0.1-0.2-0.2-0.3-0.3 -0.1-0.1-0.2-0.2-0.4-0.4 -0.1-0.1-0.2-0.2-0.4-0.4 -0.1-0.1-0.2-0.2-0.3-0.3 -0.1-0.1-0.3-0.3-0.4-0.4 -0.1-0.1-0.2-0.2-0.3-0.3 -0.1-0.1-0.2-0.3-0.4-0.4 -0.1-0.1-0.2-0.2-0.4-0.4 -0.1-0.1-0.2-0.2-0.3-0.3 -0.1-0.1-0.3-0.3-0.4-0.4 -0.1-0.1-0.2-0.2-0.3-0.3 -0.1-0.1-0.3-0.3-0.4-0.4 -0.1-0.1-0.2-0.2-0.4-0.4 -0.1-0.1-0.2-0.2-0.3-0.3 -0.1-0.1-0.2-0.2-0.3-0.3 -1.6-1.7-3.8-2.7-6.2-2.7h-0.3c0.2-5.1 0.8-10.2 1.8-16.1 1.4-8.5 2-15.4 2.1-22.4 0.2-12.9-3.4-23-10.6-30 -0.1-0.1-0.2-0.2-0.3-0.3 -0.1-0.1-0.1-0.1-0.2-0.2 3.2-2.9 6.1-6.8 8.1-11.9 2.6 5.5 6.1 10.5 10.6 14.8 0.1 0.1 0.2 0.2 0.3 0.3 0.1 0.1 0.3 0.3 0.4 0.4 0.1 0.1 0.2 0.2 0.3 0.3 0.1 0.1 0.3 0.3 0.4 0.4 0.1 0.1 0.2 0.2 0.3 0.3 0.1 0.1 0.3 0.3 0.4 0.4 0.1 0.1 0.3 0.3 0.4 0.4 0.1 0.1 0.2 0.2 0.4 0.4 0.1 0.1 0.2 0.2 0.4 0.4 0.1 0.1 0.2 0.2 0.3 0.3 0.1 0.1 0.2 0.2 0.4 0.4 0.1 0.1 0.2 0.2 0.4 0.4 0.1 0.1 0.2 0.2 0.4 0.4 0.1 0.1 0.2 0.2 0.4 0.4 0.1 0.1 0.2 0.2 0.3 0.3 0.1 0.1 0.3 0.3 0.4 0.4 0.1 0.1 0.2 0.2 0.4 0.4 0.1 0.1 0.2 0.2 0.3 0.3 0.1 0.1 0.3 0.3 0.4 0.4 0.1 0.1 0.2 0.2 0.3 0.3 0.1 0.1 0.3 0.3 0.4 0.4 0.1 0.1 0.2 0.2 0.3 0.3 0.1 0.1 0.3 0.3 0.4 0.4 0.1 0.1 0.3 0.3 0.4 0.4 0.1 0.1 0.2 0.2 0.4 0.4 0.1 0.1 0.2 0.2 0.4 0.4 0.1 0.1 0.2 0.2 0.3 0.3 0.1 0.1 0.2 0.2 0.4 0.4 0.1 0.1 0.2 0.2 0.4 0.4 0.1 0.1 0.2 0.2 0.4 0.4 0.1 0.1 0.2 0.2 0.4 0.4 0.1 0.1 0.2 0.2 0.3 0.3 0.1 0.1 0.3 0.3 0.4 0.4 0.1 0.1 0.2 0.2 0.4 0.4 0.1 0.1 0.2 0.2 0.3 0.3 0.1 0.1 0.3 0.3 0.4 0.4 0.1 0.1 0.2 0.2 0.3 0.3 0.1 0.1 0.3 0.3 0.4 0.4 0.1 0.1 0.2 0.2 0.3 0.3 0.1 0.1 0.3 0.3 0.4 0.4 0.1 0.1 0.3 0.3 0.4 0.4 0.1 0.1 0.2 0.2 0.4 0.4 0.1 0.1 0.2 0.2 0.4 0.4 0.1 0.1 0.2 0.2 0.3 0.3 0.1 0.1 0.2 0.2 0.4 0.4 0.1 0.1 0.2 0.2 0.4 0.4 0.1 0.1 0.2 0.2 0.4 0.4 0.1 0.1 0.2 0.2 0.4 0.4 0.1 0.1 0.2 0.2 0.3 0.3 0.1 0.1 0.2 0.2 0.3 0.3 4.8 4.7 10.7 8.5 17 10.9 1.1 1.6 2.1 3.2 3.3 4.8 -0.1 1.5-0.1 3-0.1 4.5 0 23.7 9.3 46 26.1 62.7l2.1 2.1c0.1 0.1 0.3 0.3 0.4 0.4l2.4 2.4c0.1 0.1 0.3 0.3 0.4 0.4l2.8 2.8c0.1 0.1 0.3 0.3 0.4 0.4l2.4 2.4c0.1 0.1 0.3 0.3 0.4 0.4l2.8 2.8c0.1 0.1 0.3 0.3 0.4 0.4l2.4 2.4c0.1 0.1 0.3 0.3 0.4 0.4l0.4 0.4c16.8 16.9 39 26.1 62.7 26.1 48.8 0 88.5-39.7 88.5-88.5 0-1.5 0-3-0.1-4.5 4.6-6.3 8.5-13.1 11.6-20.2 14.6-2.3 26.9-11 34.3-23 0 0.5 0 1 0 1.5 0 7 0.6 13.9 2 22.3 1.1 6.9 1.8 12.7 1.8 18.6 0 13.1-4.7 15.6-13.4 15.6h-5c-4.7 0-8.5 3.8-8.5 8.5v15.2c0 2.4 1 4.7 2.7 6.2 0.1 0.1 0.2 0.2 0.3 0.3 0.1 0.1 0.2 0.2 0.4 0.4 0.1 0.1 0.2 0.2 0.3 0.3 0.1 0.1 0.3 0.3 0.4 0.4 0.1 0.1 0.2 0.2 0.3 0.3 0.1 0.1 0.2 0.3 0.4 0.4 0.1 0.1 0.2 0.2 0.3 0.3 0.1 0.1 0.2 0.2 0.4 0.4 0.1 0.1 0.2 0.2 0.4 0.4 0.1 0.1 0.2 0.2 0.3 0.3 0.1 0.1 0.3 0.3 0.4 0.4 0.1 0.1 0.2 0.2 0.3 0.3 0.1 0.1 0.3 0.3 0.4 0.4 0.1 0.1 0.2 0.2 0.4 0.4 0.1 0.1 0.2 0.2 0.3 0.3 0.1 0.1 0.3 0.3 0.4 0.4 0.1 0.1 0.2 0.2 0.3 0.3 0.1 0.1 0.2 0.3 0.4 0.4 0.1 0.1 0.2 0.2 0.4 0.4 0.1 0.1 0.2 0.2 0.3 0.3 0.1 0.1 0.3 0.3 0.4 0.4 0.1 0.1 0.2 0.2 0.3 0.3 0.1 0.1 0.2 0.3 0.4 0.4 0.1 0.1 0.2 0.2 0.3 0.3 0.1 0.1 0.2 0.2 0.4 0.4 0.1 0.1 0.2 0.2 0.4 0.4 0.1 0.1 0.2 0.2 0.3 0.3 0.1 0.1 0.3 0.3 0.4 0.4 0.1 0.1 0.2 0.2 0.3 0.3 0.1 0.1 0.3 0.3 0.4 0.4 0.1 0.1 0.2 0.2 0.4 0.4 0.1 0.1 0.2 0.2 0.3 0.3 0.1 0.1 0.3 0.3 0.4 0.4 0.1 0.1 0.2 0.2 0.3 0.3 0.1 0.1 0.2 0.3 0.4 0.4 0.1 0.1 0.2 0.2 0.4 0.4 0.1 0.1 0.2 0.2 0.3 0.3 0.1 0.1 0.3 0.3 0.4 0.4 0.1 0.1 0.2 0.2 0.3 0.3 0.1 0.1 0.2 0.3 0.4 0.4 0.1 0.1 0.2 0.2 0.3 0.3 0.1 0.1 0.2 0.2 0.4 0.4 0.1 0.1 0.2 0.2 0.4 0.4 0.1 0.1 0.2 0.2 0.3 0.3 0.1 0.1 0.3 0.3 0.4 0.4 0.1 0.1 0.2 0.2 0.3 0.3 0.1 0.1 0.3 0.3 0.4 0.4 0.1 0.1 0.2 0.2 0.4 0.4 0.1 0.1 0.2 0.2 0.3 0.3 0.1 0.1 0.2 0.2 0.3 0.3 1.6 1.7 3.8 2.7 6.2 2.7h5.8c30.9 0 48.6-16.9 48.6-46.4 0-8.4-1.3-17-2.3-24 -1-7-2.1-14.3-2.1-21.1 0-7.8 2.2-12 13.9-12 4.7 0 8.5-3.8 8.5-8.5v-14.1C484 261.6 483 259.4 481.3 257.8zM415.3 257.4c0-0.4 0-0.8 0-1.2 0-2.9-0.3-5.8-0.8-8.6 1.2 1.7 2.5 3.3 4 4.7 0.1 0.1 0.2 0.2 0.3 0.2 0.1 0.1 0.2 0.2 0.3 0.3 0 0 0 0 0.1 0.1C417.7 254.4 416.4 255.8 415.3 257.4z"/>
   <path class="st2" d="M285.8 353.9c1.7-1.3 2.8-3.3 2.8-5.6 0-3.9-3.1-7-7-7h-55.7c-3.9 0-7 3.1-7 7 0 2.3 1.1 4.3 2.8 5.6l0 0c9.1 6.4 20.1 10.2 32.1 10.2C265.7 364.1 276.7 360.3 285.8 353.9L285.8 353.9z"/>
   <path class="st3" d="M54.5 246.9c19.7 0 22.4-10.8 22.4-20.5 0-7.8-1.1-15.5-2.2-23.3 -1.1-7.8-2.2-15.2-2.2-23 0-25.5 16.6-36.3 40.1-36.3h5.8v15.2h-5c-16.3 0-21.9 8.9-21.9 23.8 0 6.4 0.8 13 1.9 19.7 1.1 6.9 1.9 13.6 1.9 21 0.3 17.7-7.5 26.6-19.9 29.9v0.6c12.5 3 20.2 12.5 19.9 30.2 0 7.5-0.8 14.4-1.9 21 -1.1 6.9-1.9 13.3-1.9 19.9 0 15.5 6.4 24.1 21.9 24.1h5v15.2h-5.8c-23 0-40.1-10-40.1-37.9 0-7.5 1.1-15.2 2.2-22.7 1.1-7.5 2.2-14.9 2.2-22.4 0-8.6-2.8-20.5-22.4-20.5V246.9z"/>
   <path class="st3" d="M457.5 261c-19.7 0-22.4 11.9-22.4 20.5 0 7.5 1.1 14.9 2.2 22.4 1.1 7.5 2.2 15.2 2.2 22.7 0 28-17.2 37.9-40.1 37.9h-5.8v-15.2h5c15.5 0 21.9-8.6 21.9-24.1 0-6.6-0.8-13-1.9-19.9 -1.1-6.6-1.9-13.6-1.9-21 -0.3-17.7 7.5-27.1 19.9-30.2v-0.6c-12.5-3.3-20.2-12.2-19.9-29.9 0-7.5 0.8-14.1 1.9-21 1.1-6.6 1.9-13.3 1.9-19.7 0-14.9-5.5-23.8-21.9-23.8h-5v-15.2h5.8c23.5 0 40.1 10.8 40.1 36.3 0 7.8-1.1 15.2-2.2 23 -1.1 7.8-2.2 15.5-2.2 23.3 0 9.7 2.8 20.5 22.4 20.5V261z"/>
   <path class="st2" d="M347.9 197.7c-0.4 0-0.9 0-1.3 0 -13.2-25.7-37-45.1-65.6-52.4 -3-14.3-15.7-25.1-30.9-25.1 -4.6 0-8.4 3.4-8.9 7.8 -0.8-0.1-1.6-0.1-2.4-0.1 -5 0-9 4-9 9v8.7c-28.2 7.5-51.6 26.7-64.6 52.1 -0.5 0-1.1 0-1.6 0 -22.8 0-41.3 18.5-41.3 41.3 0 22 17.3 40.1 39.1 41.3 3.5 9 8.2 17.5 14.2 25.2 -0.2 2.3-0.3 4.6-0.3 6.9 0 44.4 36.1 80.5 80.5 80.5 44.4 0 80.5-36.1 80.5-80.5 0-2.3-0.1-4.6-0.3-6.9 5.9-7.7 10.7-16.2 14.2-25.2 21.7-1.2 39.1-19.2 39.1-41.3C389.3 216.3 370.7 197.7 347.9 197.7zM347.9 262.4c-0.9 0-1.9-0.1-3-0.2 -4.3-0.6-8.4 2.1-9.7 6.3 -3.2 10.5-8.5 20.1-15.5 28.6 -1.6 1.9-2.3 4.5-2 7 0.4 2.9 0.6 5.7 0.6 8.4 0 34.5-28 62.5-62.5 62.5 -34.5 0-62.5-28-62.5-62.5 0-2.7 0.2-5.5 0.6-8.4 0.3-2.5-0.4-5-2-7 -7.1-8.5-12.3-18.1-15.5-28.6 -1.2-3.8-4.7-6.3-8.6-6.3 -0.4 0-0.8 0-1.1 0.1 -1 0.1-2 0.2-2.9 0.2 -12.9 0-23.3-10.5-23.3-23.3 0-12.9 10.5-23.3 23.3-23.3 1.8 0 3.6 0.2 5.4 0.6 3.8 0.9 7.6-0.7 9.6-3.9 12.4-30.3 42.3-51.7 77.1-51.7 34.8 0 64.7 21.4 77.1 51.7 2 3.2 5.9 4.8 9.6 3.9 1.8-0.4 3.6-0.6 5.4-0.6 12.9 0 23.3 10.5 23.3 23.3C371.3 251.9 360.8 262.4 347.9 262.4z"/>
   <path class="st2" d="M297.6 270.3c7.3 0 13.1-8.7 13.1-19.4 0-10.7-5.9-19.4-13.1-19.4 -1.4 0-2.8 0.3-4 0.9 -11.2 3.8-24 6-37.7 6.1 -13.7-0.1-26.5-2.2-37.7-6.1 -1.3-0.6-2.6-0.9-4-0.9 -7.3 0-13.2 8.7-13.2 19.4 0 10.7 5.9 19.4 13.2 19.4h5.6C210.6 279.4 205 292 205 306c0 8.4 2 16.3 5.6 23.3l0 0c0.6 1.2 1.9 2.1 3.3 2.1h83.6c1.5 0 2.7-0.8 3.3-2.1l0 0c3.6-7 5.7-14.9 5.7-23.3 0-13.9-5.6-26.5-14.7-35.7H297.6zM226.4 259.6c-3.5 0-6.3-2.8-6.3-6.3 0-3.5 2.8-6.3 6.3-6.3 3.5 0 6.3 2.8 6.3 6.3C232.7 256.8 229.9 259.6 226.4 259.6zM252.1 276.6c-1.7 0.9-4.2-0.4-5.5-3 -1.3-2.5-1-5.3 0.7-6.2 1.7-0.9 4.2 0.4 5.5 3C254.1 272.9 253.9 275.7 252.1 276.6zM265 273.6c-1.3 2.5-3.8 3.9-5.5 3 -1.7-0.9-2-3.7-0.7-6.2 1.3-2.5 3.8-3.9 5.5-3C266 268.3 266.3 271.1 265 273.6zM285.2 259.6c-3.5 0-6.3-2.8-6.3-6.3 0-3.5 2.8-6.3 6.3-6.3 3.5 0 6.3 2.8 6.3 6.3C291.5 256.8 288.7 259.6 285.2 259.6z"/>
</svg>