<svg xmlns="http://www.w3.org/2000/svg" viewBox="0 0 512 512">
   <style type="text/css">  
      .st0{fill:#7286C2;}
      .st1{fill:#CBD5ED;}
      .st2{fill:#FFFFFF;}
      .st3{fill:#5970AB;}
   </style>
   <rect class="st0" width="512" height="512"/>
   <circle class="st1" cx="255.8" cy="340.8" r="108.9"/>
   <ellipse class="st1" cx="255.7" cy="236.4" rx="140.2" ry="140.2"/>
   <path class="st1" d="M247.1 61.9v68.7c19 0 34.3-15.4 34.3-34.3C281.5 77.2 266.1 61.9 247.1 61.9z"/>
   <path class="st1" d="M230 73.6v45.2c12.5 0 22.6-10.1 22.6-22.6C252.5 83.7 242.4 73.6 230 73.6z"/>
   <path class="st2" d="M301.4 403.9c2.6-1.9 4.3-5 4.3-8.5 0-5.9-4.8-10.7-10.7-10.7h-84.8c-5.9 0-10.7 4.8-10.7 10.7 0 3.5 1.7 6.6 4.2 8.5l0 0c13.8 9.8 30.7 15.5 48.9 15.5C270.7 419.4 287.6 413.7 301.4 403.9L301.4 403.9z"/>
   <path class="st2" d="M319.3 276.5c11.1 0 20-13.2 20-29.5s-9-29.5-20-29.5c-2.2 0-4.2 0.5-6.2 1.4 -17 5.8-36.6 9.1-57.4 9.3 -20.8-0.1-40.4-3.4-57.4-9.3 -1.9-0.9-4-1.4-6.2-1.4 -11.1 0-20 13.2-20 29.5s9 29.5 20 29.5h8.7c-13.8 14-22.4 33.2-22.4 54.4 0 12.8 3.1 24.8 8.6 35.4 0.9 1.9 2.9 3.1 5.1 3.1h127.3c2.2 0 4.1-1.3 5-3.1 5.5-10.6 8.6-22.6 8.6-35.4 0-21.2-8.6-40.4-22.4-54.4H319.3z"/>
   <path class="st3" d="M251.1 276.7c-2-3.9-5.8-5.9-8.4-4.5 -2.6 1.4-3.1 5.6-1 9.5 2 3.9 5.8 5.9 8.4 4.5C252.7 284.8 253.2 280.6 251.1 276.7z"/>
   <path class="st3" d="M260.3 276.7c2-3.9 5.8-5.9 8.4-4.5s3.1 5.6 1 9.5 -5.8 5.9-8.4 4.5C258.7 284.8 258.2 280.6 260.3 276.7z"/>
   <circle class="st1" cx="396" cy="229" r="49.2"/>
   <circle class="st1" cx="115.5" cy="229" r="49.2"/>
   <circle class="st3" cx="300.5" cy="250.8" r="9.6"/>
   <circle class="st3" cx="210.9" cy="250.8" r="9.6"/>
</svg>